/* XPM */
static const char *block4cr_xpm[] = {
"32 32 3 1",
" 	c #D9D9DA",
"x	c #000000",
"#	c #333333",
"xxxxxxxxxxxxxxxxxxxxxxxxxxxxxxxx",
"xxxxxxxxxxxxxxxxxxxxxxxxxxxxxxxx",
"xx                            xx",
"xx                            xx",
"xx                       ###  xx",
"xx                      ###   xx",
"xx                     ###    xx",
"xx                    ###     xx",
"xx                   ###      xx",
"xx                  ###       xx",
"xx                 ###        xx",
"xx                ###         xx",
"xx               ###          xx",
"xx              ###           xx",
"xx             ###            xx",
"xx            ####            xx",
"xx            ####            xx",
"xx           ######           xx",
"xx          ###  ###          xx",
"xx         ###    ###         xx",
"xx        ###      ###        xx",
"xx       ###        ###       xx",
"xx      ###          ###      xx",
"xx     ###            ###     xx",
"xx    ###              ###    xx",
"xx   ###                ###   xx",
"xx  ###                  ###  xx",
"xx ###                    ### xx",
"xx                            xx",
"xx                            xx",
"xxxxxxxxxxxxxxxxxxxxxxxxxxxxxxxx",
"xxxxxxxxxxxxxxxxxxxxxxxxxxxxxxxx",
};
