/* XPM */
static const char *block5_xpm[] = {
"32 32 2 1",
" 	c #D461D5",
"x	c #000000",
"xxxxxxxxxxxxxxxxxxxxxxxxxxxxxxxx",
"xxxxxxxxxxxxxxxxxxxxxxxxxxxxxxxx",
"xx                            xx",
"xx                            xx",
"xx                            xx",
"xx                            xx",
"xx                            xx",
"xx                            xx",
"xx                            xx",
"xx                            xx",
"xx                            xx",
"xx                            xx",
"xx                            xx",
"xx                            xx",
"xx                            xx",
"xx                            xx",
"xx                            xx",
"xx                            xx",
"xx                            xx",
"xx                            xx",
"xx                            xx",
"xx                            xx",
"xx                            xx",
"xx                            xx",
"xx                            xx",
"xx                            xx",
"xx                            xx",
"xx                            xx",
"xx                            xx",
"xx                            xx",
"xxxxxxxxxxxxxxxxxxxxxxxxxxxxxxxx",
"xxxxxxxxxxxxxxxxxxxxxxxxxxxxxxxx",
};
