/* XPM */
static const char *block6_xpm[] = {
"32 32 2 1",
" 	c #D4D462",
"x	c #000000",
"xxxxxxxxxxxxxxxxxxxxxxxxxxxxxxxx",
"xxxxxxxxxxxxxxxxxxxxxxxxxxxxxxxx",
"xx                            xx",
"xx                            xx",
"xx                            xx",
"xx                            xx",
"xx                            xx",
"xx                            xx",
"xx                            xx",
"xx                            xx",
"xx                            xx",
"xx                            xx",
"xx                            xx",
"xx                            xx",
"xx                            xx",
"xx                            xx",
"xx                            xx",
"xx                            xx",
"xx                            xx",
"xx                            xx",
"xx                            xx",
"xx                            xx",
"xx                            xx",
"xx                            xx",
"xx                            xx",
"xx                            xx",
"xx                            xx",
"xx                            xx",
"xx                            xx",
"xx                            xx",
"xxxxxxxxxxxxxxxxxxxxxxxxxxxxxxxx",
"xxxxxxxxxxxxxxxxxxxxxxxxxxxxxxxx",
};
