/* XPM */
static const char *block3_xpm[] = {
"32 32 2 1",
" 	c #D46162",
"x	c #000000",
"xxxxxxxxxxxxxxxxxxxxxxxxxxxxxxxx",
"xxxxxxxxxxxxxxxxxxxxxxxxxxxxxxxx",
"xx                            xx",
"xx                            xx",
"xx                            xx",
"xx                            xx",
"xx                            xx",
"xx                            xx",
"xx                            xx",
"xx                            xx",
"xx                            xx",
"xx                            xx",
"xx                            xx",
"xx                            xx",
"xx                            xx",
"xx                            xx",
"xx                            xx",
"xx                            xx",
"xx                            xx",
"xx                            xx",
"xx                            xx",
"xx                            xx",
"xx                            xx",
"xx                            xx",
"xx                            xx",
"xx                            xx",
"xx                            xx",
"xx                            xx",
"xx                            xx",
"xx                            xx",
"xxxxxxxxxxxxxxxxxxxxxxxxxxxxxxxx",
"xxxxxxxxxxxxxxxxxxxxxxxxxxxxxxxx",
};
