/* XPM */
static const char *block2_xpm[] = {
"32 32 2 1",
" 	c #61D162",
"x	c #000000",
"xxxxxxxxxxxxxxxxxxxxxxxxxxxxxxxx",
"xxxxxxxxxxxxxxxxxxxxxxxxxxxxxxxx",
"xx                            xx",
"xx                            xx",
"xx                            xx",
"xx                            xx",
"xx                            xx",
"xx                            xx",
"xx                            xx",
"xx                            xx",
"xx                            xx",
"xx                            xx",
"xx                            xx",
"xx                            xx",
"xx                            xx",
"xx                            xx",
"xx                            xx",
"xx                            xx",
"xx                            xx",
"xx                            xx",
"xx                            xx",
"xx                            xx",
"xx                            xx",
"xx                            xx",
"xx                            xx",
"xx                            xx",
"xx                            xx",
"xx                            xx",
"xx                            xx",
"xx                            xx",
"xxxxxxxxxxxxxxxxxxxxxxxxxxxxxxxx",
"xxxxxxxxxxxxxxxxxxxxxxxxxxxxxxxx",
};
