/* XPM */
static const char *block1_xpm[] = {
"32 32 2 1",
" 	c #5ECCCB",
"x	c #000000",
"xxxxxxxxxxxxxxxxxxxxxxxxxxxxxxxx",
"xxxxxxxxxxxxxxxxxxxxxxxxxxxxxxxx",
"xx                            xx",
"xx                            xx",
"xx                            xx",
"xx                            xx",
"xx                            xx",
"xx                            xx",
"xx                            xx",
"xx                            xx",
"xx                            xx",
"xx                            xx",
"xx                            xx",
"xx                            xx",
"xx                            xx",
"xx                            xx",
"xx                            xx",
"xx                            xx",
"xx                            xx",
"xx                            xx",
"xx                            xx",
"xx                            xx",
"xx                            xx",
"xx                            xx",
"xx                            xx",
"xx                            xx",
"xx                            xx",
"xx                            xx",
"xx                            xx",
"xx                            xx",
"xxxxxxxxxxxxxxxxxxxxxxxxxxxxxxxx",
"xxxxxxxxxxxxxxxxxxxxxxxxxxxxxxxx",
};
