/* XPM */
static const char *crush2_xpm[] = {
"32 32 2 1",
"1	c #FFFFFF",
"0	c #000000",
"00000000000000111110000000000000",
"00000000000000111110000000000000",
"00000000000000111110000000000000",
"00000111000000111110000000000000",
"00000111100000000000000001110000",
"00001111100000000000000001110000",
"00011111100000000000000011111000",
"00011111000011111000000011111100",
"00001100000011111000000001111100",
"00000000000001111100000000111000",
"00000000000001111100000000000000",
"00000000000001111100000000000000",
"00000000000000111000000000000000",
"00000000000000000000000000000000",
"00000111000000000000000000000000",
"00000111100000000000000000000000",
"00001111110000000000000000000000",
"00000111110000000011000000111000",
"00000011100000010111100001111100",
"00000001100000011111100001111110",
"00000000000000011111100001111110",
"00000000000000000111000001111100",
"00000000000000000000000000011000",
"00111000000000000000000000000000",
"00111100000000000000011000000000",
"01111110000000000000011100000000",
"01111100001100000000011111000000",
"00111000001111000000111111000000",
"00000000011111100000111111000000",
"00000000001111000000111110000000",
"00000000000011000000011100000000",
"00000000000000000000000000000000"
};
