/* XPM */
static const char *crush1_xpm[] = {
"32 32 2 1",
"1	c #FFFFFF",
"0	c #000000",
"00000000000000000000000000000000",
"00000000000000000000000000000000",
"00000000000000000000000000000000",
"00000000000000000000000000000000",
"00000000000000000000000000000000",
"00000000000000000000000000000000",
"00000000000001110001110000000000",
"00000001111011111001111000000000",
"00000011111011111001111000000000",
"00000011111011111101111100000000",
"00000011111001111101110000000000",
"00000000000000000000000110000000",
"00000000011001100000011110000000",
"00000011111001111001111110000000",
"00000011111001111000111110000000",
"00000011111100111000000000000000",
"00000000001000011001111100000000",
"00000000000000000001111110000000",
"00000000010101100000011110000000",
"00000011111101111101000000000000",
"00000011111100111101111100000000",
"00000011111110111101111100000000",
"00000011111100111100111000000000",
"00000001111000011000110000000000",
"00000000000000000000000000000000",
"00000000000000000000000000000000",
"00000000000000000000000000000000",
"00000000000000000000000000000000",
"00000000000000000000000000000000",
"00000000000000000000000000000000",
"00000000000000000000000000000000",
"00000000000000000000000000000000"
};
