/* XPM */
static const char *crush4_xpm[] = {
"32 32 2 1",
"1	c #FFFFFF",
"0	c #000000",
"00000000000000000000000000000000",
"00000000000000000000000000000000",
"00000000000000000000000000000000",
"00000000000000000000000000000000",
"00000000000000000000000000000000",
"00000000000000000000000000000000",
"00000000000000000000000000000000",
"00000000000000000000000000000000",
"00000000000000000000000000000000",
"00000000000000000000000000000000",
"00000000000000000000000000000000",
"00000000000000000000000000000000",
"00000000000000000000000000000000",
"00000000000000000000000000000000",
"00000000000000000000000000000000",
"00000000000000000000000000000000",
"00000000000000000000000000000000",
"00000000000000000000000000000000",
"00000000000000000000000000000000",
"00011000010000001111000000000000",
"00011000011000001111000011000000",
"00111000011000000111011111110000",
"01100000000001110111001111000000",
"01001100000011110000000000000000",
"00001111000111100011110001110000",
"00000111100111001111100001110000",
"00000000100110011110000000011000",
"01111100000000011000000000011100",
"01111110011100000000111111001110",
"01111100011111000001111110000110",
"00000000011111000011111100000000",
"00000000000000000000000000000000"
};
