/* XPM */
static const char *crush3_xpm[] = {
"32 32 2 1",
"1	c #FFFFFF",
"0	c #000000",
"00000000000000000000000000000000",
"00000000000000000000000000000000",
"00000000000000000000000000000000",
"00000000000000000000000000000000",
"00000000000000000000000000000000",
"00000000000000000000000000000000",
"00000000000000000000110000000000",
"00000000000000000111110000000000",
"00000000000000001111110000000000",
"00000000000000001111110000000000",
"00000000000000000111110000000000",
"00000010000000000000000001000000",
"00001111000000000000000001110000",
"00011111000011110000000011111000",
"00111111000011111000000011111100",
"00111110000001111100000001111100",
"00011000000001111100000000111000",
"00000000000001111100000000000000",
"00000111000000111000000000000000",
"00000111100000000001100000000000",
"00001111110000000011110000000000",
"00000111110000000111110000111000",
"00000011100000000111110001111100",
"00000001100000000011100001111110",
"00000000000000000000000001111110",
"00000000000000000000000001111100",
"01111000000000000000000000011000",
"01111100000000000000110000000000",
"00111110011100000000111111000000",
"00000000011111000000111110000000",
"00000000011111000000011100000000",
"00000000000000000000000000000000"
};
