/* XPM */
static const char *crush0_xpm[] = {
"32 32 2 1",
"1	c #FFFFFF",
"0	c #000000",
"00000000000000000000000000000000",
"00000000000000000000000000000000",
"00000000000000000000000000000000",
"00000000000000000000000000000000",
"00000111110000111000000000000000",
"00000111111011111101111100000000",
"00000111111011111101111100000000",
"00000111111011111101111100000000",
"00000111111011111101111100000000",
"00000111111011111101100000000000",
"00000111111010111000001100000000",
"00000111111000000000111110000000",
"00000000000001111100111111000000",
"00000000011011111100111111000000",
"00000011111011111100011111000000",
"00000011111001111100000000000000",
"00000011111101111100011000000000",
"00000000001000111101111110000000",
"00000111100000001101111110000000",
"00000111110101100000011110000000",
"00000111111101111101000000000000",
"00000111111100111101111100000000",
"00000111111110111101111100000000",
"00000111111100111100111100000000",
"00000111111000111100111110000000",
"00000100000000111000111110000000",
"00000000000000000000000000000000",
"00000000000000000000000000000000",
"00000000000000000000000000000000",
"00000000000000000000000000000000",
"00000000000000000000000000000000",
"00000000000000000000000000000000"
};
