/* XPM */
static const char *icon[] = {
/* columns rows colors chars-per-pixel */
"32 32 5 1",
"  c black",
". c blue",
"X c green",
"o c red",
"O c gray100",
/* pixels */
"OOOOOOOOOOOOOOOOOOOOOOOOOOOOOOOO",
"OOOOOOOOOOOOOOOOOOOOOOOOOOOOOOOO",
"OOOOOOOOOOOOOOOOOOOOOOOOOOOOOOO ",
"OOO                          O O",
"OOO oooooooooooooooooooooooo  O ",
"OOO oooooooooooooooooooooooo O O",
"OOO oooooooooooooooooooooooo  O ",
"OOO  ooooooooooooooooooooooo O O",
"OOO   oooooooooooooooooooooo  O ",
"OOO     ooooooooooooooooooo  O O",
"OOO      ooooooooooooooooo    O ",
"OOO XX     oooooooooooooo    O O",
"OOO XXX      oooooooooo       O ",
"OOO XXXXX      oooooo      . O O",
"OOO XXXXXXX      oo       ..  O ",
"OOO XXXXXXXX            .... O O",
"OOO XXXXXXXXXX         .....  O ",
"OOO XXXXXXXXXXX      ....... O O",
"OOO XXXXXXXXXXX    .........  O ",
"OOO XXXXXXXXXXX   .......... O O",
"OOO XXXXXXXXXXX   ..........  O ",
"OOO XXXXXXXXXX    .......... O O",
"OOO XXXXXXXXXX    ..........  O ",
"OOO XXXXXXXXXX   ........... O O",
"OOO XXXXXXXXXX   ...........  O ",
"OOO XXXXXXXXXX   ........... O O",
"OOO XXXXXXXXX    ...........  O ",
"OOO XXXXXXXXX   ............ O O",
"OOO                           O ",
"OOOO O O O O O O O O O O O O O O",
"OOO O O O O O O O O O O O O O O ",
"OO O O O O O O O O O O O O O O O"
};
