/* XPM */
static const char *star_xpm[] = {
"32 32 2 1",
"0	c #000000",
"1	c #FF7744",
"00000000000000100000000000000000",
"00000001000000110000000000000000",
"00001001100001111000000010000000",
"00000100100001111000000110000000",
"01000000100011111100000100001100",
"00110000000011111100000000011100",
"00001000000011111110000000110000",
"00000000000111111110000000000000",
"00000000000111111111000000000000",
"00000000011111111111100000000000",
"11111111111100111001111111111111",
"01111111111100111001111111111110",
"00111111111110111101111111111100",
"00001111111110111101111111110000",
"00000111111101111011111111100000",
"00000011111111111111111110000000",
"11000001111111111111111000000000",
"11110000111011111111011000001110",
"00000000111011111110111100000010",
"00000000111100000001111100000000",
"00001001111111111111111110000000",
"00110001111111111111111110001110",
"01100011111111111111111111000110",
"00000011111111100111111111000000",
"00000111111100000001111111100000",
"00000111110000000000011111100000",
"00001111100000000000000111110000",
"00001111000000000001000001110000",
"00011110000010000001000000111000",
"00011000000010000001100000011000",
"00000000000110000001100000000000",
"00000000000000000000000000000000"
};
